<?xml version="1.0" encoding="UTF-8" standalone="yes"?>
<!DOCTYPE svg PUBLIC "-//W3C//DTD SVG 1.0//EN" "http://www.w3.org/TR/2001/REC-SVG-20010904/DTD/svg10.dtd">
<svg height="1150" width="535" xmlns="http://www.w3.org/2000/svg" xmlns:svg="http://www.w3.org/2000/svg" xmlns:xlink="http://www.w3.org/1999/xlink">
	<g id="group_black_lineC98706217" style="stroke: black; stroke-width: 1">
		<line x1="30" x2="535" y1="200" y2="200" />
		<line x1="30" x2="30" y1="0" y2="200" />
		<line x1="35" x2="35" y1="200" y2="205" />
		<line x1="40" x2="40" y1="200" y2="205" />
		<line x1="45" x2="45" y1="200" y2="205" />
		<line x1="50" x2="50" y1="200" y2="205" />
		<line x1="55" x2="55" y1="200" y2="205" />
		<line x1="60" x2="60" y1="200" y2="205" />
		<line x1="65" x2="65" y1="200" y2="205" />
		<line x1="70" x2="70" y1="200" y2="205" />
		<line x1="75" x2="75" y1="200" y2="205" />
		<line x1="80" x2="80" y1="200" y2="205" />
		<line x1="85" x2="85" y1="200" y2="205" />
		<line x1="90" x2="90" y1="200" y2="205" />
		<line x1="95" x2="95" y1="200" y2="205" />
		<line x1="100" x2="100" y1="200" y2="205" />
		<line x1="105" x2="105" y1="200" y2="205" />
		<line x1="110" x2="110" y1="200" y2="205" />
		<line x1="115" x2="115" y1="200" y2="205" />
		<line x1="120" x2="120" y1="200" y2="205" />
		<line x1="125" x2="125" y1="200" y2="205" />
		<line x1="130" x2="130" y1="200" y2="205" />
		<line x1="135" x2="135" y1="200" y2="205" />
		<line x1="140" x2="140" y1="200" y2="205" />
		<line x1="145" x2="145" y1="200" y2="205" />
		<line x1="150" x2="150" y1="200" y2="205" />
		<line x1="155" x2="155" y1="200" y2="205" />
		<line x1="160" x2="160" y1="200" y2="205" />
		<line x1="165" x2="165" y1="200" y2="205" />
		<line x1="170" x2="170" y1="200" y2="205" />
		<line x1="175" x2="175" y1="200" y2="205" />
		<line x1="180" x2="180" y1="200" y2="205" />
		<line x1="185" x2="185" y1="200" y2="205" />
		<line x1="190" x2="190" y1="200" y2="205" />
		<line x1="195" x2="195" y1="200" y2="205" />
		<line x1="200" x2="200" y1="200" y2="205" />
		<line x1="205" x2="205" y1="200" y2="205" />
		<line x1="210" x2="210" y1="200" y2="205" />
		<line x1="215" x2="215" y1="200" y2="205" />
		<line x1="220" x2="220" y1="200" y2="205" />
		<line x1="225" x2="225" y1="200" y2="205" />
		<line x1="230" x2="230" y1="200" y2="205" />
		<line x1="235" x2="235" y1="200" y2="205" />
		<line x1="240" x2="240" y1="200" y2="205" />
		<line x1="245" x2="245" y1="200" y2="205" />
		<line x1="250" x2="250" y1="200" y2="205" />
		<line x1="255" x2="255" y1="200" y2="205" />
		<line x1="260" x2="260" y1="200" y2="205" />
		<line x1="265" x2="265" y1="200" y2="205" />
		<line x1="270" x2="270" y1="200" y2="205" />
		<line x1="275" x2="275" y1="200" y2="205" />
		<line x1="280" x2="280" y1="200" y2="205" />
		<line x1="285" x2="285" y1="200" y2="205" />
		<line x1="290" x2="290" y1="200" y2="205" />
		<line x1="295" x2="295" y1="200" y2="205" />
		<line x1="300" x2="300" y1="200" y2="205" />
		<line x1="305" x2="305" y1="200" y2="205" />
		<line x1="310" x2="310" y1="200" y2="205" />
		<line x1="315" x2="315" y1="200" y2="205" />
		<line x1="320" x2="320" y1="200" y2="205" />
		<line x1="325" x2="325" y1="200" y2="205" />
		<line x1="330" x2="330" y1="200" y2="205" />
		<line x1="335" x2="335" y1="200" y2="205" />
		<line x1="340" x2="340" y1="200" y2="205" />
		<line x1="345" x2="345" y1="200" y2="205" />
		<line x1="350" x2="350" y1="200" y2="205" />
		<line x1="355" x2="355" y1="200" y2="205" />
		<line x1="360" x2="360" y1="200" y2="205" />
		<line x1="365" x2="365" y1="200" y2="205" />
		<line x1="370" x2="370" y1="200" y2="205" />
		<line x1="375" x2="375" y1="200" y2="205" />
		<line x1="380" x2="380" y1="200" y2="205" />
		<line x1="385" x2="385" y1="200" y2="205" />
		<line x1="390" x2="390" y1="200" y2="205" />
		<line x1="395" x2="395" y1="200" y2="205" />
		<line x1="400" x2="400" y1="200" y2="205" />
		<line x1="405" x2="405" y1="200" y2="205" />
		<line x1="410" x2="410" y1="200" y2="205" />
		<line x1="415" x2="415" y1="200" y2="205" />
		<line x1="420" x2="420" y1="200" y2="205" />
		<line x1="425" x2="425" y1="200" y2="205" />
		<line x1="430" x2="430" y1="200" y2="205" />
		<line x1="435" x2="435" y1="200" y2="205" />
		<line x1="440" x2="440" y1="200" y2="205" />
		<line x1="445" x2="445" y1="200" y2="205" />
		<line x1="450" x2="450" y1="200" y2="205" />
		<line x1="455" x2="455" y1="200" y2="205" />
		<line x1="460" x2="460" y1="200" y2="205" />
		<line x1="465" x2="465" y1="200" y2="205" />
		<line x1="470" x2="470" y1="200" y2="205" />
		<line x1="475" x2="475" y1="200" y2="205" />
		<line x1="480" x2="480" y1="200" y2="205" />
		<line x1="485" x2="485" y1="200" y2="205" />
		<line x1="490" x2="490" y1="200" y2="205" />
		<line x1="495" x2="495" y1="200" y2="205" />
		<line x1="500" x2="500" y1="200" y2="205" />
		<line x1="505" x2="505" y1="200" y2="205" />
		<line x1="510" x2="510" y1="200" y2="205" />
		<line x1="515" x2="515" y1="200" y2="205" />
		<line x1="520" x2="520" y1="200" y2="205" />
		<line x1="525" x2="525" y1="200" y2="205" />
		<line x1="530" x2="530" y1="200" y2="205" />
		<line x1="535" x2="535" y1="200" y2="205" />
		<line x1="30" x2="25" y1="200" y2="200" />
		<line x1="30" x2="25" y1="183.333333333333" y2="183.333333333333" />
		<line x1="30" x2="25" y1="166.666666666667" y2="166.666666666667" />
		<line x1="30" x2="25" y1="150" y2="150" />
		<line x1="30" x2="25" y1="133.333333333333" y2="133.333333333333" />
		<line x1="30" x2="25" y1="116.666666666667" y2="116.666666666667" />
		<line x1="30" x2="25" y1="100" y2="100" />
		<line x1="30" x2="25" y1="83.3333333333334" y2="83.3333333333334" />
		<line x1="30" x2="25" y1="66.6666666666667" y2="66.6666666666667" />
		<line x1="30" x2="25" y1="50" y2="50" />
		<line x1="30" x2="25" y1="33.3333333333333" y2="33.3333333333333" />
		<line x1="30" x2="25" y1="16.6666666666667" y2="16.6666666666667" />
		<line x1="30" x2="25" y1="7.105427357601e-015" y2="7.105427357601e-015" />
	</g>
	<g id="group_green_rectC98706217" style="fill: green; stroke: geenn">
		<rect height="16.6666666666667" width="5" x="280" y="183.333333333333" />
		<rect height="16.6666666666667" width="5" x="230" y="183.333333333333" />
		<rect height="50" width="5" x="210" y="150" />
		<rect height="50" width="5" x="350" y="150" />
		<rect height="16.6666666666667" width="5" x="300" y="183.333333333333" />
		<rect height="33.3333333333333" width="5" x="240" y="166.666666666667" />
		<rect height="50" width="5" x="380" y="150" />
		<rect height="33.3333333333333" width="5" x="250" y="166.666666666667" />
		<rect height="200" width="5" x="320" y="0" />
		<rect height="66.6666666666667" width="5" x="370" y="133.333333333333" />
		<rect height="116.666666666667" width="5" x="340" y="83.3333333333333" />
		<rect height="16.6666666666667" width="5" x="200" y="183.333333333333" />
		<rect height="50" width="5" x="290" y="150" />
		<rect height="83.3333333333333" width="5" x="330" y="116.666666666667" />
		<rect height="83.3333333333333" width="5" x="310" y="116.666666666667" />
		<rect height="33.3333333333333" width="5" x="260" y="166.666666666667" />
		<rect height="16.6666666666667" width="5" x="270" y="183.333333333333" />
		<rect height="66.6666666666667" width="5" x="360" y="133.333333333333" />
	</g>
	<g id="group_black_lineC98706220" style="stroke: black; stroke-width: 1">
		<line x1="30" x2="535" y1="430" y2="430" />
		<line x1="30" x2="30" y1="230" y2="430" />
		<line x1="35" x2="35" y1="430" y2="435" />
		<line x1="40" x2="40" y1="430" y2="435" />
		<line x1="45" x2="45" y1="430" y2="435" />
		<line x1="50" x2="50" y1="430" y2="435" />
		<line x1="55" x2="55" y1="430" y2="435" />
		<line x1="60" x2="60" y1="430" y2="435" />
		<line x1="65" x2="65" y1="430" y2="435" />
		<line x1="70" x2="70" y1="430" y2="435" />
		<line x1="75" x2="75" y1="430" y2="435" />
		<line x1="80" x2="80" y1="430" y2="435" />
		<line x1="85" x2="85" y1="430" y2="435" />
		<line x1="90" x2="90" y1="430" y2="435" />
		<line x1="95" x2="95" y1="430" y2="435" />
		<line x1="100" x2="100" y1="430" y2="435" />
		<line x1="105" x2="105" y1="430" y2="435" />
		<line x1="110" x2="110" y1="430" y2="435" />
		<line x1="115" x2="115" y1="430" y2="435" />
		<line x1="120" x2="120" y1="430" y2="435" />
		<line x1="125" x2="125" y1="430" y2="435" />
		<line x1="130" x2="130" y1="430" y2="435" />
		<line x1="135" x2="135" y1="430" y2="435" />
		<line x1="140" x2="140" y1="430" y2="435" />
		<line x1="145" x2="145" y1="430" y2="435" />
		<line x1="150" x2="150" y1="430" y2="435" />
		<line x1="155" x2="155" y1="430" y2="435" />
		<line x1="160" x2="160" y1="430" y2="435" />
		<line x1="165" x2="165" y1="430" y2="435" />
		<line x1="170" x2="170" y1="430" y2="435" />
		<line x1="175" x2="175" y1="430" y2="435" />
		<line x1="180" x2="180" y1="430" y2="435" />
		<line x1="185" x2="185" y1="430" y2="435" />
		<line x1="190" x2="190" y1="430" y2="435" />
		<line x1="195" x2="195" y1="430" y2="435" />
		<line x1="200" x2="200" y1="430" y2="435" />
		<line x1="205" x2="205" y1="430" y2="435" />
		<line x1="210" x2="210" y1="430" y2="435" />
		<line x1="215" x2="215" y1="430" y2="435" />
		<line x1="220" x2="220" y1="430" y2="435" />
		<line x1="225" x2="225" y1="430" y2="435" />
		<line x1="230" x2="230" y1="430" y2="435" />
		<line x1="235" x2="235" y1="430" y2="435" />
		<line x1="240" x2="240" y1="430" y2="435" />
		<line x1="245" x2="245" y1="430" y2="435" />
		<line x1="250" x2="250" y1="430" y2="435" />
		<line x1="255" x2="255" y1="430" y2="435" />
		<line x1="260" x2="260" y1="430" y2="435" />
		<line x1="265" x2="265" y1="430" y2="435" />
		<line x1="270" x2="270" y1="430" y2="435" />
		<line x1="275" x2="275" y1="430" y2="435" />
		<line x1="280" x2="280" y1="430" y2="435" />
		<line x1="285" x2="285" y1="430" y2="435" />
		<line x1="290" x2="290" y1="430" y2="435" />
		<line x1="295" x2="295" y1="430" y2="435" />
		<line x1="300" x2="300" y1="430" y2="435" />
		<line x1="305" x2="305" y1="430" y2="435" />
		<line x1="310" x2="310" y1="430" y2="435" />
		<line x1="315" x2="315" y1="430" y2="435" />
		<line x1="320" x2="320" y1="430" y2="435" />
		<line x1="325" x2="325" y1="430" y2="435" />
		<line x1="330" x2="330" y1="430" y2="435" />
		<line x1="335" x2="335" y1="430" y2="435" />
		<line x1="340" x2="340" y1="430" y2="435" />
		<line x1="345" x2="345" y1="430" y2="435" />
		<line x1="350" x2="350" y1="430" y2="435" />
		<line x1="355" x2="355" y1="430" y2="435" />
		<line x1="360" x2="360" y1="430" y2="435" />
		<line x1="365" x2="365" y1="430" y2="435" />
		<line x1="370" x2="370" y1="430" y2="435" />
		<line x1="375" x2="375" y1="430" y2="435" />
		<line x1="380" x2="380" y1="430" y2="435" />
		<line x1="385" x2="385" y1="430" y2="435" />
		<line x1="390" x2="390" y1="430" y2="435" />
		<line x1="395" x2="395" y1="430" y2="435" />
		<line x1="400" x2="400" y1="430" y2="435" />
		<line x1="405" x2="405" y1="430" y2="435" />
		<line x1="410" x2="410" y1="430" y2="435" />
		<line x1="415" x2="415" y1="430" y2="435" />
		<line x1="420" x2="420" y1="430" y2="435" />
		<line x1="425" x2="425" y1="430" y2="435" />
		<line x1="430" x2="430" y1="430" y2="435" />
		<line x1="435" x2="435" y1="430" y2="435" />
		<line x1="440" x2="440" y1="430" y2="435" />
		<line x1="445" x2="445" y1="430" y2="435" />
		<line x1="450" x2="450" y1="430" y2="435" />
		<line x1="455" x2="455" y1="430" y2="435" />
		<line x1="460" x2="460" y1="430" y2="435" />
		<line x1="465" x2="465" y1="430" y2="435" />
		<line x1="470" x2="470" y1="430" y2="435" />
		<line x1="475" x2="475" y1="430" y2="435" />
		<line x1="480" x2="480" y1="430" y2="435" />
		<line x1="485" x2="485" y1="430" y2="435" />
		<line x1="490" x2="490" y1="430" y2="435" />
		<line x1="495" x2="495" y1="430" y2="435" />
		<line x1="500" x2="500" y1="430" y2="435" />
		<line x1="505" x2="505" y1="430" y2="435" />
		<line x1="510" x2="510" y1="430" y2="435" />
		<line x1="515" x2="515" y1="430" y2="435" />
		<line x1="520" x2="520" y1="430" y2="435" />
		<line x1="525" x2="525" y1="430" y2="435" />
		<line x1="530" x2="530" y1="430" y2="435" />
		<line x1="535" x2="535" y1="430" y2="435" />
		<line x1="30" x2="25" y1="430" y2="430" />
		<line x1="30" x2="25" y1="417.5" y2="417.5" />
		<line x1="30" x2="25" y1="405" y2="405" />
		<line x1="30" x2="25" y1="392.5" y2="392.5" />
		<line x1="30" x2="25" y1="380" y2="380" />
		<line x1="30" x2="25" y1="367.5" y2="367.5" />
		<line x1="30" x2="25" y1="355" y2="355" />
		<line x1="30" x2="25" y1="342.5" y2="342.5" />
		<line x1="30" x2="25" y1="330" y2="330" />
		<line x1="30" x2="25" y1="317.5" y2="317.5" />
		<line x1="30" x2="25" y1="305" y2="305" />
		<line x1="30" x2="25" y1="292.5" y2="292.5" />
		<line x1="30" x2="25" y1="280" y2="280" />
		<line x1="30" x2="25" y1="267.5" y2="267.5" />
		<line x1="30" x2="25" y1="255" y2="255" />
		<line x1="30" x2="25" y1="242.5" y2="242.5" />
		<line x1="30" x2="25" y1="230" y2="230" />
	</g>
	<g id="group_green_rectC98706220" style="fill: green; stroke: geenn">
		<rect height="25" width="5" x="170" y="405" />
		<rect height="75" width="5" x="370" y="355" />
		<rect height="62.5" width="5" x="200" y="367.5" />
		<rect height="87.5" width="5" x="290" y="342.5" />
		<rect height="112.5" width="5" x="400" y="317.5" />
		<rect height="37.5" width="5" x="420" y="392.5" />
		<rect height="200" width="5" x="340" y="230" />
		<rect height="137.5" width="5" x="310" y="292.5" />
		<rect height="137.5" width="5" x="330" y="292.5" />
		<rect height="87.5" width="5" x="360" y="342.5" />
		<rect height="50" width="5" x="260" y="380" />
		<rect height="50" width="5" x="270" y="380" />
		<rect height="125" width="5" x="280" y="305" />
		<rect height="125" width="5" x="350" y="305" />
		<rect height="87.5" width="5" x="230" y="342.5" />
		<rect height="112.5" width="5" x="210" y="317.5" />
		<rect height="125" width="5" x="300" y="305" />
		<rect height="100" width="5" x="220" y="330" />
		<rect height="100" width="5" x="250" y="330" />
		<rect height="50" width="5" x="190" y="380" />
		<rect height="75" width="5" x="240" y="355" />
		<rect height="100" width="5" x="380" y="330" />
		<rect height="62.5" width="5" x="180" y="367.5" />
		<rect height="50" width="5" x="390" y="380" />
		<rect height="200" width="5" x="320" y="230" />
	</g>
	<g id="group_black_lineC98706216" style="stroke: black; stroke-width: 1">
		<line x1="30" x2="535" y1="660" y2="660" />
		<line x1="30" x2="30" y1="460" y2="660" />
		<line x1="35" x2="35" y1="660" y2="665" />
		<line x1="40" x2="40" y1="660" y2="665" />
		<line x1="45" x2="45" y1="660" y2="665" />
		<line x1="50" x2="50" y1="660" y2="665" />
		<line x1="55" x2="55" y1="660" y2="665" />
		<line x1="60" x2="60" y1="660" y2="665" />
		<line x1="65" x2="65" y1="660" y2="665" />
		<line x1="70" x2="70" y1="660" y2="665" />
		<line x1="75" x2="75" y1="660" y2="665" />
		<line x1="80" x2="80" y1="660" y2="665" />
		<line x1="85" x2="85" y1="660" y2="665" />
		<line x1="90" x2="90" y1="660" y2="665" />
		<line x1="95" x2="95" y1="660" y2="665" />
		<line x1="100" x2="100" y1="660" y2="665" />
		<line x1="105" x2="105" y1="660" y2="665" />
		<line x1="110" x2="110" y1="660" y2="665" />
		<line x1="115" x2="115" y1="660" y2="665" />
		<line x1="120" x2="120" y1="660" y2="665" />
		<line x1="125" x2="125" y1="660" y2="665" />
		<line x1="130" x2="130" y1="660" y2="665" />
		<line x1="135" x2="135" y1="660" y2="665" />
		<line x1="140" x2="140" y1="660" y2="665" />
		<line x1="145" x2="145" y1="660" y2="665" />
		<line x1="150" x2="150" y1="660" y2="665" />
		<line x1="155" x2="155" y1="660" y2="665" />
		<line x1="160" x2="160" y1="660" y2="665" />
		<line x1="165" x2="165" y1="660" y2="665" />
		<line x1="170" x2="170" y1="660" y2="665" />
		<line x1="175" x2="175" y1="660" y2="665" />
		<line x1="180" x2="180" y1="660" y2="665" />
		<line x1="185" x2="185" y1="660" y2="665" />
		<line x1="190" x2="190" y1="660" y2="665" />
		<line x1="195" x2="195" y1="660" y2="665" />
		<line x1="200" x2="200" y1="660" y2="665" />
		<line x1="205" x2="205" y1="660" y2="665" />
		<line x1="210" x2="210" y1="660" y2="665" />
		<line x1="215" x2="215" y1="660" y2="665" />
		<line x1="220" x2="220" y1="660" y2="665" />
		<line x1="225" x2="225" y1="660" y2="665" />
		<line x1="230" x2="230" y1="660" y2="665" />
		<line x1="235" x2="235" y1="660" y2="665" />
		<line x1="240" x2="240" y1="660" y2="665" />
		<line x1="245" x2="245" y1="660" y2="665" />
		<line x1="250" x2="250" y1="660" y2="665" />
		<line x1="255" x2="255" y1="660" y2="665" />
		<line x1="260" x2="260" y1="660" y2="665" />
		<line x1="265" x2="265" y1="660" y2="665" />
		<line x1="270" x2="270" y1="660" y2="665" />
		<line x1="275" x2="275" y1="660" y2="665" />
		<line x1="280" x2="280" y1="660" y2="665" />
		<line x1="285" x2="285" y1="660" y2="665" />
		<line x1="290" x2="290" y1="660" y2="665" />
		<line x1="295" x2="295" y1="660" y2="665" />
		<line x1="300" x2="300" y1="660" y2="665" />
		<line x1="305" x2="305" y1="660" y2="665" />
		<line x1="310" x2="310" y1="660" y2="665" />
		<line x1="315" x2="315" y1="660" y2="665" />
		<line x1="320" x2="320" y1="660" y2="665" />
		<line x1="325" x2="325" y1="660" y2="665" />
		<line x1="330" x2="330" y1="660" y2="665" />
		<line x1="335" x2="335" y1="660" y2="665" />
		<line x1="340" x2="340" y1="660" y2="665" />
		<line x1="345" x2="345" y1="660" y2="665" />
		<line x1="350" x2="350" y1="660" y2="665" />
		<line x1="355" x2="355" y1="660" y2="665" />
		<line x1="360" x2="360" y1="660" y2="665" />
		<line x1="365" x2="365" y1="660" y2="665" />
		<line x1="370" x2="370" y1="660" y2="665" />
		<line x1="375" x2="375" y1="660" y2="665" />
		<line x1="380" x2="380" y1="660" y2="665" />
		<line x1="385" x2="385" y1="660" y2="665" />
		<line x1="390" x2="390" y1="660" y2="665" />
		<line x1="395" x2="395" y1="660" y2="665" />
		<line x1="400" x2="400" y1="660" y2="665" />
		<line x1="405" x2="405" y1="660" y2="665" />
		<line x1="410" x2="410" y1="660" y2="665" />
		<line x1="415" x2="415" y1="660" y2="665" />
		<line x1="420" x2="420" y1="660" y2="665" />
		<line x1="425" x2="425" y1="660" y2="665" />
		<line x1="430" x2="430" y1="660" y2="665" />
		<line x1="435" x2="435" y1="660" y2="665" />
		<line x1="440" x2="440" y1="660" y2="665" />
		<line x1="445" x2="445" y1="660" y2="665" />
		<line x1="450" x2="450" y1="660" y2="665" />
		<line x1="455" x2="455" y1="660" y2="665" />
		<line x1="460" x2="460" y1="660" y2="665" />
		<line x1="465" x2="465" y1="660" y2="665" />
		<line x1="470" x2="470" y1="660" y2="665" />
		<line x1="475" x2="475" y1="660" y2="665" />
		<line x1="480" x2="480" y1="660" y2="665" />
		<line x1="485" x2="485" y1="660" y2="665" />
		<line x1="490" x2="490" y1="660" y2="665" />
		<line x1="495" x2="495" y1="660" y2="665" />
		<line x1="500" x2="500" y1="660" y2="665" />
		<line x1="505" x2="505" y1="660" y2="665" />
		<line x1="510" x2="510" y1="660" y2="665" />
		<line x1="515" x2="515" y1="660" y2="665" />
		<line x1="520" x2="520" y1="660" y2="665" />
		<line x1="525" x2="525" y1="660" y2="665" />
		<line x1="530" x2="530" y1="660" y2="665" />
		<line x1="535" x2="535" y1="660" y2="665" />
		<line x1="30" x2="25" y1="660" y2="660" />
		<line x1="30" x2="25" y1="637.777777777778" y2="637.777777777778" />
		<line x1="30" x2="25" y1="615.555555555556" y2="615.555555555556" />
		<line x1="30" x2="25" y1="593.333333333333" y2="593.333333333333" />
		<line x1="30" x2="25" y1="571.111111111111" y2="571.111111111111" />
		<line x1="30" x2="25" y1="548.888888888889" y2="548.888888888889" />
		<line x1="30" x2="25" y1="526.666666666667" y2="526.666666666667" />
		<line x1="30" x2="25" y1="504.444444444444" y2="504.444444444444" />
		<line x1="30" x2="25" y1="482.222222222222" y2="482.222222222222" />
	</g>
	<g id="group_green_rectC98706216" style="fill: green; stroke: geenn">
		<rect height="88.8888888888889" width="5" x="320" y="571.111111111111" />
		<rect height="44.4444444444444" width="5" x="390" y="615.555555555556" />
		<rect height="22.2222222222222" width="5" x="380" y="637.777777777778" />
		<rect height="22.2222222222222" width="5" x="180" y="637.777777777778" />
		<rect height="200" width="5" x="240" y="460" />
		<rect height="44.4444444444444" width="5" x="190" y="615.555555555556" />
		<rect height="88.8888888888889" width="5" x="250" y="571.111111111111" />
		<rect height="88.8888888888889" width="5" x="220" y="571.111111111111" />
		<rect height="111.111111111111" width="5" x="300" y="548.888888888889" />
		<rect height="66.6666666666667" width="5" x="210" y="593.333333333333" />
		<rect height="155.555555555556" width="5" x="230" y="504.444444444444" />
		<rect height="22.2222222222222" width="5" x="350" y="637.777777777778" />
		<rect height="133.333333333333" width="5" x="280" y="526.666666666667" />
		<rect height="44.4444444444444" width="5" x="270" y="615.555555555556" />
		<rect height="88.8888888888889" width="5" x="260" y="571.111111111111" />
		<rect height="22.2222222222222" width="5" x="360" y="637.777777777778" />
		<rect height="88.8888888888889" width="5" x="330" y="571.111111111111" />
		<rect height="44.4444444444444" width="5" x="310" y="615.555555555556" />
		<rect height="22.2222222222222" width="5" x="340" y="637.777777777778" />
		<rect height="66.6666666666667" width="5" x="290" y="593.333333333333" />
		<rect height="22.2222222222222" width="5" x="200" y="637.777777777778" />
		<rect height="66.6666666666667" width="5" x="370" y="593.333333333333" />
	</g>
	<g id="group_black_lineC98706218" style="stroke: black; stroke-width: 1">
		<line x1="30" x2="535" y1="890" y2="890" />
		<line x1="30" x2="30" y1="690" y2="890" />
		<line x1="35" x2="35" y1="890" y2="895" />
		<line x1="40" x2="40" y1="890" y2="895" />
		<line x1="45" x2="45" y1="890" y2="895" />
		<line x1="50" x2="50" y1="890" y2="895" />
		<line x1="55" x2="55" y1="890" y2="895" />
		<line x1="60" x2="60" y1="890" y2="895" />
		<line x1="65" x2="65" y1="890" y2="895" />
		<line x1="70" x2="70" y1="890" y2="895" />
		<line x1="75" x2="75" y1="890" y2="895" />
		<line x1="80" x2="80" y1="890" y2="895" />
		<line x1="85" x2="85" y1="890" y2="895" />
		<line x1="90" x2="90" y1="890" y2="895" />
		<line x1="95" x2="95" y1="890" y2="895" />
		<line x1="100" x2="100" y1="890" y2="895" />
		<line x1="105" x2="105" y1="890" y2="895" />
		<line x1="110" x2="110" y1="890" y2="895" />
		<line x1="115" x2="115" y1="890" y2="895" />
		<line x1="120" x2="120" y1="890" y2="895" />
		<line x1="125" x2="125" y1="890" y2="895" />
		<line x1="130" x2="130" y1="890" y2="895" />
		<line x1="135" x2="135" y1="890" y2="895" />
		<line x1="140" x2="140" y1="890" y2="895" />
		<line x1="145" x2="145" y1="890" y2="895" />
		<line x1="150" x2="150" y1="890" y2="895" />
		<line x1="155" x2="155" y1="890" y2="895" />
		<line x1="160" x2="160" y1="890" y2="895" />
		<line x1="165" x2="165" y1="890" y2="895" />
		<line x1="170" x2="170" y1="890" y2="895" />
		<line x1="175" x2="175" y1="890" y2="895" />
		<line x1="180" x2="180" y1="890" y2="895" />
		<line x1="185" x2="185" y1="890" y2="895" />
		<line x1="190" x2="190" y1="890" y2="895" />
		<line x1="195" x2="195" y1="890" y2="895" />
		<line x1="200" x2="200" y1="890" y2="895" />
		<line x1="205" x2="205" y1="890" y2="895" />
		<line x1="210" x2="210" y1="890" y2="895" />
		<line x1="215" x2="215" y1="890" y2="895" />
		<line x1="220" x2="220" y1="890" y2="895" />
		<line x1="225" x2="225" y1="890" y2="895" />
		<line x1="230" x2="230" y1="890" y2="895" />
		<line x1="235" x2="235" y1="890" y2="895" />
		<line x1="240" x2="240" y1="890" y2="895" />
		<line x1="245" x2="245" y1="890" y2="895" />
		<line x1="250" x2="250" y1="890" y2="895" />
		<line x1="255" x2="255" y1="890" y2="895" />
		<line x1="260" x2="260" y1="890" y2="895" />
		<line x1="265" x2="265" y1="890" y2="895" />
		<line x1="270" x2="270" y1="890" y2="895" />
		<line x1="275" x2="275" y1="890" y2="895" />
		<line x1="280" x2="280" y1="890" y2="895" />
		<line x1="285" x2="285" y1="890" y2="895" />
		<line x1="290" x2="290" y1="890" y2="895" />
		<line x1="295" x2="295" y1="890" y2="895" />
		<line x1="300" x2="300" y1="890" y2="895" />
		<line x1="305" x2="305" y1="890" y2="895" />
		<line x1="310" x2="310" y1="890" y2="895" />
		<line x1="315" x2="315" y1="890" y2="895" />
		<line x1="320" x2="320" y1="890" y2="895" />
		<line x1="325" x2="325" y1="890" y2="895" />
		<line x1="330" x2="330" y1="890" y2="895" />
		<line x1="335" x2="335" y1="890" y2="895" />
		<line x1="340" x2="340" y1="890" y2="895" />
		<line x1="345" x2="345" y1="890" y2="895" />
		<line x1="350" x2="350" y1="890" y2="895" />
		<line x1="355" x2="355" y1="890" y2="895" />
		<line x1="360" x2="360" y1="890" y2="895" />
		<line x1="365" x2="365" y1="890" y2="895" />
		<line x1="370" x2="370" y1="890" y2="895" />
		<line x1="375" x2="375" y1="890" y2="895" />
		<line x1="380" x2="380" y1="890" y2="895" />
		<line x1="385" x2="385" y1="890" y2="895" />
		<line x1="390" x2="390" y1="890" y2="895" />
		<line x1="395" x2="395" y1="890" y2="895" />
		<line x1="400" x2="400" y1="890" y2="895" />
		<line x1="405" x2="405" y1="890" y2="895" />
		<line x1="410" x2="410" y1="890" y2="895" />
		<line x1="415" x2="415" y1="890" y2="895" />
		<line x1="420" x2="420" y1="890" y2="895" />
		<line x1="425" x2="425" y1="890" y2="895" />
		<line x1="430" x2="430" y1="890" y2="895" />
		<line x1="435" x2="435" y1="890" y2="895" />
		<line x1="440" x2="440" y1="890" y2="895" />
		<line x1="445" x2="445" y1="890" y2="895" />
		<line x1="450" x2="450" y1="890" y2="895" />
		<line x1="455" x2="455" y1="890" y2="895" />
		<line x1="460" x2="460" y1="890" y2="895" />
		<line x1="465" x2="465" y1="890" y2="895" />
		<line x1="470" x2="470" y1="890" y2="895" />
		<line x1="475" x2="475" y1="890" y2="895" />
		<line x1="480" x2="480" y1="890" y2="895" />
		<line x1="485" x2="485" y1="890" y2="895" />
		<line x1="490" x2="490" y1="890" y2="895" />
		<line x1="495" x2="495" y1="890" y2="895" />
		<line x1="500" x2="500" y1="890" y2="895" />
		<line x1="505" x2="505" y1="890" y2="895" />
		<line x1="510" x2="510" y1="890" y2="895" />
		<line x1="515" x2="515" y1="890" y2="895" />
		<line x1="520" x2="520" y1="890" y2="895" />
		<line x1="525" x2="525" y1="890" y2="895" />
		<line x1="530" x2="530" y1="890" y2="895" />
		<line x1="535" x2="535" y1="890" y2="895" />
		<line x1="30" x2="25" y1="890" y2="890" />
		<line x1="30" x2="25" y1="867.777777777778" y2="867.777777777778" />
		<line x1="30" x2="25" y1="845.555555555556" y2="845.555555555556" />
		<line x1="30" x2="25" y1="823.333333333333" y2="823.333333333333" />
		<line x1="30" x2="25" y1="801.111111111111" y2="801.111111111111" />
		<line x1="30" x2="25" y1="778.888888888889" y2="778.888888888889" />
		<line x1="30" x2="25" y1="756.666666666667" y2="756.666666666667" />
		<line x1="30" x2="25" y1="734.444444444444" y2="734.444444444444" />
		<line x1="30" x2="25" y1="712.222222222222" y2="712.222222222222" />
	</g>
	<g id="group_green_rectC98706218" style="fill: green; stroke: geenn">
		<rect height="88.8888888888889" width="5" x="360" y="801.111111111111" />
		<rect height="66.6666666666667" width="5" x="310" y="823.333333333333" />
		<rect height="88.8888888888889" width="5" x="330" y="801.111111111111" />
		<rect height="22.2222222222222" width="5" x="290" y="867.777777777778" />
		<rect height="66.6666666666667" width="5" x="420" y="823.333333333333" />
		<rect height="200" width="5" x="400" y="690" />
		<rect height="111.111111111111" width="5" x="340" y="778.888888888889" />
		<rect height="44.4444444444444" width="5" x="370" y="845.555555555556" />
		<rect height="111.111111111111" width="5" x="320" y="778.888888888889" />
		<rect height="111.111111111111" width="5" x="300" y="778.888888888889" />
		<rect height="22.2222222222222" width="5" x="250" y="867.777777777778" />
		<rect height="22.2222222222222" width="5" x="240" y="867.777777777778" />
		<rect height="133.333333333333" width="5" x="380" y="756.666666666667" />
		<rect height="88.8888888888889" width="5" x="390" y="801.111111111111" />
		<rect height="66.6666666666667" width="5" x="350" y="823.333333333333" />
		<rect height="88.8888888888889" width="5" x="280" y="801.111111111111" />
	</g>
	<g id="group_black_lineC98706219" style="stroke: black; stroke-width: 1">
		<line x1="30" x2="535" y1="1120" y2="1120" />
		<line x1="30" x2="30" y1="920" y2="1120" />
		<line x1="35" x2="35" y1="1120" y2="1125" />
		<line x1="40" x2="40" y1="1120" y2="1125" />
		<line x1="45" x2="45" y1="1120" y2="1125" />
		<line x1="50" x2="50" y1="1120" y2="1125" />
		<line x1="55" x2="55" y1="1120" y2="1125" />
		<line x1="60" x2="60" y1="1120" y2="1125" />
		<line x1="65" x2="65" y1="1120" y2="1125" />
		<line x1="70" x2="70" y1="1120" y2="1125" />
		<line x1="75" x2="75" y1="1120" y2="1125" />
		<line x1="80" x2="80" y1="1120" y2="1125" />
		<line x1="85" x2="85" y1="1120" y2="1125" />
		<line x1="90" x2="90" y1="1120" y2="1125" />
		<line x1="95" x2="95" y1="1120" y2="1125" />
		<line x1="100" x2="100" y1="1120" y2="1125" />
		<line x1="105" x2="105" y1="1120" y2="1125" />
		<line x1="110" x2="110" y1="1120" y2="1125" />
		<line x1="115" x2="115" y1="1120" y2="1125" />
		<line x1="120" x2="120" y1="1120" y2="1125" />
		<line x1="125" x2="125" y1="1120" y2="1125" />
		<line x1="130" x2="130" y1="1120" y2="1125" />
		<line x1="135" x2="135" y1="1120" y2="1125" />
		<line x1="140" x2="140" y1="1120" y2="1125" />
		<line x1="145" x2="145" y1="1120" y2="1125" />
		<line x1="150" x2="150" y1="1120" y2="1125" />
		<line x1="155" x2="155" y1="1120" y2="1125" />
		<line x1="160" x2="160" y1="1120" y2="1125" />
		<line x1="165" x2="165" y1="1120" y2="1125" />
		<line x1="170" x2="170" y1="1120" y2="1125" />
		<line x1="175" x2="175" y1="1120" y2="1125" />
		<line x1="180" x2="180" y1="1120" y2="1125" />
		<line x1="185" x2="185" y1="1120" y2="1125" />
		<line x1="190" x2="190" y1="1120" y2="1125" />
		<line x1="195" x2="195" y1="1120" y2="1125" />
		<line x1="200" x2="200" y1="1120" y2="1125" />
		<line x1="205" x2="205" y1="1120" y2="1125" />
		<line x1="210" x2="210" y1="1120" y2="1125" />
		<line x1="215" x2="215" y1="1120" y2="1125" />
		<line x1="220" x2="220" y1="1120" y2="1125" />
		<line x1="225" x2="225" y1="1120" y2="1125" />
		<line x1="230" x2="230" y1="1120" y2="1125" />
		<line x1="235" x2="235" y1="1120" y2="1125" />
		<line x1="240" x2="240" y1="1120" y2="1125" />
		<line x1="245" x2="245" y1="1120" y2="1125" />
		<line x1="250" x2="250" y1="1120" y2="1125" />
		<line x1="255" x2="255" y1="1120" y2="1125" />
		<line x1="260" x2="260" y1="1120" y2="1125" />
		<line x1="265" x2="265" y1="1120" y2="1125" />
		<line x1="270" x2="270" y1="1120" y2="1125" />
		<line x1="275" x2="275" y1="1120" y2="1125" />
		<line x1="280" x2="280" y1="1120" y2="1125" />
		<line x1="285" x2="285" y1="1120" y2="1125" />
		<line x1="290" x2="290" y1="1120" y2="1125" />
		<line x1="295" x2="295" y1="1120" y2="1125" />
		<line x1="300" x2="300" y1="1120" y2="1125" />
		<line x1="305" x2="305" y1="1120" y2="1125" />
		<line x1="310" x2="310" y1="1120" y2="1125" />
		<line x1="315" x2="315" y1="1120" y2="1125" />
		<line x1="320" x2="320" y1="1120" y2="1125" />
		<line x1="325" x2="325" y1="1120" y2="1125" />
		<line x1="330" x2="330" y1="1120" y2="1125" />
		<line x1="335" x2="335" y1="1120" y2="1125" />
		<line x1="340" x2="340" y1="1120" y2="1125" />
		<line x1="345" x2="345" y1="1120" y2="1125" />
		<line x1="350" x2="350" y1="1120" y2="1125" />
		<line x1="355" x2="355" y1="1120" y2="1125" />
		<line x1="360" x2="360" y1="1120" y2="1125" />
		<line x1="365" x2="365" y1="1120" y2="1125" />
		<line x1="370" x2="370" y1="1120" y2="1125" />
		<line x1="375" x2="375" y1="1120" y2="1125" />
		<line x1="380" x2="380" y1="1120" y2="1125" />
		<line x1="385" x2="385" y1="1120" y2="1125" />
		<line x1="390" x2="390" y1="1120" y2="1125" />
		<line x1="395" x2="395" y1="1120" y2="1125" />
		<line x1="400" x2="400" y1="1120" y2="1125" />
		<line x1="405" x2="405" y1="1120" y2="1125" />
		<line x1="410" x2="410" y1="1120" y2="1125" />
		<line x1="415" x2="415" y1="1120" y2="1125" />
		<line x1="420" x2="420" y1="1120" y2="1125" />
		<line x1="425" x2="425" y1="1120" y2="1125" />
		<line x1="430" x2="430" y1="1120" y2="1125" />
		<line x1="435" x2="435" y1="1120" y2="1125" />
		<line x1="440" x2="440" y1="1120" y2="1125" />
		<line x1="445" x2="445" y1="1120" y2="1125" />
		<line x1="450" x2="450" y1="1120" y2="1125" />
		<line x1="455" x2="455" y1="1120" y2="1125" />
		<line x1="460" x2="460" y1="1120" y2="1125" />
		<line x1="465" x2="465" y1="1120" y2="1125" />
		<line x1="470" x2="470" y1="1120" y2="1125" />
		<line x1="475" x2="475" y1="1120" y2="1125" />
		<line x1="480" x2="480" y1="1120" y2="1125" />
		<line x1="485" x2="485" y1="1120" y2="1125" />
		<line x1="490" x2="490" y1="1120" y2="1125" />
		<line x1="495" x2="495" y1="1120" y2="1125" />
		<line x1="500" x2="500" y1="1120" y2="1125" />
		<line x1="505" x2="505" y1="1120" y2="1125" />
		<line x1="510" x2="510" y1="1120" y2="1125" />
		<line x1="515" x2="515" y1="1120" y2="1125" />
		<line x1="520" x2="520" y1="1120" y2="1125" />
		<line x1="525" x2="525" y1="1120" y2="1125" />
		<line x1="530" x2="530" y1="1120" y2="1125" />
		<line x1="535" x2="535" y1="1120" y2="1125" />
		<line x1="30" x2="25" y1="1120" y2="1120" />
		<line x1="30" x2="25" y1="1095" y2="1095" />
		<line x1="30" x2="25" y1="1070" y2="1070" />
		<line x1="30" x2="25" y1="1045" y2="1045" />
		<line x1="30" x2="25" y1="1020" y2="1020" />
		<line x1="30" x2="25" y1="995" y2="995" />
		<line x1="30" x2="25" y1="970" y2="970" />
		<line x1="30" x2="25" y1="945" y2="945" />
		<line x1="30" x2="25" y1="920" y2="920" />
	</g>
	<g id="group_green_rectC98706219" style="fill: green; stroke: geenn">
		<rect height="25" width="5" x="120" y="1095" />
		<rect height="50" width="5" x="90" y="1070" />
		<rect height="100" width="5" x="250" y="1020" />
		<rect height="100" width="5" x="190" y="1020" />
		<rect height="50" width="5" x="350" y="1070" />
		<rect height="25" width="5" x="50" y="1095" />
		<rect height="50" width="5" x="230" y="1070" />
		<rect height="125" width="5" x="210" y="995" />
		<rect height="25" width="5" x="280" y="1095" />
		<rect height="25" width="5" x="30" y="1095" />
		<rect height="175" width="5" x="360" y="945" />
		<rect height="25" width="5" x="110" y="1095" />
		<rect height="100" width="5" x="270" y="1020" />
		<rect height="50" width="5" x="310" y="1070" />
		<rect height="100" width="5" x="330" y="1020" />
		<rect height="125" width="5" x="200" y="995" />
		<rect height="25" width="5" x="100" y="1095" />
		<rect height="125" width="5" x="290" y="995" />
		<rect height="150" width="5" x="400" y="970" />
		<rect height="100" width="5" x="370" y="1020" />
		<rect height="75" width="5" x="320" y="1045" />
		<rect height="25" width="5" x="160" y="1095" />
		<rect height="50" width="5" x="140" y="1070" />
		<rect height="200" width="5" x="300" y="920" />
		<rect height="50" width="5" x="220" y="1070" />
		<rect height="50" width="5" x="180" y="1070" />
		<rect height="75" width="5" x="240" y="1045" />
		<rect height="50" width="5" x="390" y="1070" />
		<rect height="125" width="5" x="380" y="995" />
		<rect height="25" width="5" x="130" y="1095" />
		<rect height="50" width="5" x="70" y="1070" />
		<rect height="25" width="5" x="60" y="1095" />
		<rect height="75" width="5" x="260" y="1045" />
		<rect height="50" width="5" x="340" y="1070" />
		<rect height="25" width="5" x="170" y="1095" />
	</g>
	<!-- 
	Generated using the Perl SVG Module V2.69
	by Ronan Oger
	Info: http://www.roitsystems.com/
 -->
</svg>